# xmcd
#
# Track frame offsets: 
#        150
#        12575
#        31838
#        41975
#        56630
#        66405
#        92742
#        104487
#        117675
#        129368
#        140630
#        167885
#        178598
#        189348
#        200885
#        210110
#        220123
#        231098
#        246860
#        255547
#        265922
#        285647
#
# Disc length: 4235 seconds
#
# Revision: 0
# Processed by: cddbd v1.5.2PL0 Copyright (c) Steve Scherf et al.
# Submitted via: ExactAudioCopy v0.99pb5
#
DISCID=53108916
DTITLE=Chuck Berry - Star Profile
DYEAR=2000
DGENRE=Blues
TTITLE0=Johnny B. Goode
TTITLE1=Reelin And Rockin
TTITLE2=Sweet Little Sixteen
TTITLE3=Let`s Boogie
TTITLE4=Memphis
TTITLE5=Mean Old World
TTITLE6=School Days
TTITLE7=I Will Not Let You Go
TTITLE8=Maybelline
TTITLE9=Back In The USA
TTITLE10=London Berry Blues
TTITLE11=Around And Around
TTITLE12=Brown Eyed Handsome Man
TTITLE13=Roll And Roll Music
TTITLE14=Roll Over Beethoven
TTITLE15=Thirty Days
TTITLE16=Carol
TTITLE17=I Love You
TTITLE18=Let It Rock
TTITLE19=Club Nitty Gritty
TTITLE20=Johnny B. Goode (Live Version)
TTITLE21=Reelin And Rockin (Live Version)
EXTD=
EXTT0=
EXTT1=
EXTT2=
EXTT3=
EXTT4=
EXTT5=
EXTT6=
EXTT7=
EXTT8=
EXTT9=
EXTT10=
EXTT11=
EXTT12=
EXTT13=
EXTT14=
EXTT15=
EXTT16=
EXTT17=
EXTT18=
EXTT19=
EXTT20=
EXTT21=
PLAYORDER=
